<svg id="Слой_1" data-name="ssIn.svg" xmlns="http://www.w3.org/2000/svg" viewBox="0 0 393.8 393.8"><defs><style>.cls-1{fill:#847d79;}</style></defs><title>ssIn</title><path class="cls-1" d="M2782.69,1340.8H2620.88a116,116,0,0,0-116,116V1618.6a116,116,0,0,0,116,116h161.81a116,116,0,0,0,116-116V1456.79A116,116,0,0,0,2782.69,1340.8Zm-81,293a95.43,95.43,0,1,1,95.43-95.43A95.43,95.43,0,0,1,2701.69,1633.79Zm112-166.55a39.78,39.78,0,1,1,39.78-39.78A39.78,39.78,0,0,1,2813.7,1467.24Z" transform="translate(-2504.89 -1340.8)"/></svg>